<?xml version="1.0" encoding="utf-8" ?><svg xmlns="http://www.w3.org/2000/svg" xmlns:xlink="http://www.w3.org/1999/xlink" width="1024" height="1024" viewBox="0 0 1024 1024"><path fill="#71808F" d="M211.823 330.442L212.213 330.897C208.384 341.411 201.268 355.477 196.806 366.333C182.663 400.744 166.002 435.096 153.028 469.926C172.721 466.279 200.396 464.978 221.421 462.505C201.247 489.259 180.69 519.096 161.047 546.486L69.3111 672.713C67.6151 675.102 65.9979 677.441 64.1549 679.724C65.4263 675.24 73.9435 658.499 76.1954 653.648C86.0985 632.316 97.2382 611.428 107.807 590.474C120.401 565.503 132.555 537.195 142.48 511C129.025 511.823 115.324 511.969 101.841 512.976C95.8507 513.424 89.7638 513.539 83.8427 514.532C87.604 506.222 106.043 480.786 112.063 471.797C128.161 447.459 144.616 423.358 161.42 399.502C178.004 376.283 195.359 353.581 211.823 330.442Z"/><path fill="#323846" d="M945.405 448.988C949.772 448.853 954.142 448.823 958.511 448.899L958.512 574.996L946.098 575.215L945.992 558.887C945.772 559.239 945.546 559.586 945.315 559.93C932.513 578.924 908.472 582.312 890.011 569.601C872.695 556.438 869.696 534.392 873.087 513.962C875.026 502.277 881.802 491.145 891.763 484.634C900.954 478.626 912.263 477.215 922.914 479.491C934.135 481.885 939.776 488.335 945.761 497.529C946.059 491.994 945.63 484.772 945.604 478.983C945.563 469.861 946.587 457.846 945.405 448.988ZM916.392 565.714C921.358 565.349 925.787 564.323 930.095 561.691C953.979 547.099 951.093 498.002 921.707 491.176C919.405 490.641 917.191 490.398 914.841 490.194C890.429 492.378 882.773 512.383 885.241 534.455C887.239 552.32 897.587 564.883 916.392 565.714Z"/><path fill="#32A559" d="M195.908 522.077C205.857 521.416 216.305 522.179 226.282 521.789C240.551 521.231 254.705 529.548 254.32 545.433C253.596 575.272 263.233 615.366 221.125 618.487C211.31 618.52 201.428 618.567 191.64 618.503C183.777 618.452 174.722 616.634 169.252 610.526C159.381 599.504 161.491 577.395 162.145 563.429C168.454 554.085 187.788 529.035 195.908 522.077Z"/><path fill="#323846" d="M368.858 450.2C394.39 450.819 412.483 462.366 415.986 488.52C407.201 488.49 398.888 488.15 390.066 488.497C389.131 485.778 388.224 483.639 386.355 481.319C381.272 473.225 361.534 471.114 355.401 478.723C344.054 492.802 365.566 498.185 373.134 500.06C393.492 505.104 417.052 512.39 417.534 537.06C417.711 546.422 414.122 555.464 407.572 562.157C397.643 572.257 383.625 575.537 369.903 575.55C344.609 575.735 324.84 562.56 321.273 536.703C329.966 536.312 339.759 536.448 348.476 536.559C350.086 541.533 350.53 543.085 354.542 547.219C363.05 555.986 390.723 554.955 389.549 538.754C388.873 529.42 375.035 526.507 367.171 524.927C348.965 521.27 326.787 512.785 325.495 491.024C324.817 480.714 326.881 472.659 333.959 464.667C343.304 454.115 355.233 451.026 368.858 450.2Z"/><path fill="#323846" d="M423.979 448.998L450.513 449.019C450.082 462.226 451.012 479.499 450.054 491.662C456.148 483.781 464.894 476.54 475.465 477.088C510.956 478.929 507.858 511.2 507.868 537.015L507.843 575.078L481.898 574.991C482.027 564.12 482.062 553.247 482.002 542.375C481.718 531.956 484.347 513.242 476.749 505.434C474.258 502.892 470.861 501.44 467.303 501.395C459.736 501.338 452.014 507.238 450.766 514.811C449.474 522.642 449.895 531.054 449.912 539.007L450.007 575.026C441.409 574.852 432.484 574.973 423.86 574.978C424.465 561.609 423.947 544.742 423.922 531.038L423.979 448.998Z"/><path fill="#323846" d="M723.298 448.686C734.381 446.911 749.061 450.147 758.39 456.366C771.89 465.366 778.44 476.603 781.828 492.107L768.729 492.027C763.779 474.606 751.358 462.558 732.994 460.823C722.821 459.814 712.668 462.915 704.794 469.434C683.229 487.526 682.438 530.467 700.107 551.53C715.146 569.835 746.582 569.402 760.765 550.182C767.934 540.468 768.754 533.181 769.418 521.601C762.586 521.459 755.383 521.565 748.521 521.556L729.504 521.616L729.409 510.062L782.495 510.481L782.07 574.875C778.004 574.728 775.099 574.767 771.029 574.973C770.896 567.512 771.057 559.76 771.116 552.276C770.1 553.765 769.068 555.243 768.022 556.711C759.74 568.328 751.63 573.229 737.621 575.736C661.176 589.411 650.336 458.391 723.298 448.686Z"/><path fill="#32A559" d="M194.362 410.762C210.384 410.591 229.152 408.261 242.399 419.205C257.365 431.402 254.196 445.708 254.635 461.965C256.118 516.874 250.145 511.918 201.028 513.78C204.416 509.319 207.87 504.907 211.387 500.547C224.083 485.405 241.242 464.029 252.664 448.464C245.551 448.514 238.116 449.284 231 449.51C210.866 450.146 190.694 451.741 170.597 452.507C175.888 440.486 182.831 421.648 188.537 410.968L194.362 410.762Z"/><path fill="#323846" d="M594.779 445.691C599.261 445.278 605.752 445.588 610.394 445.677C610.169 452.43 610.051 459.74 610.399 466.47C604.185 466.717 594.923 466.345 590.946 472.019C589.404 474.22 588.513 477.092 589.565 479.682C592.588 481.181 601.74 480.628 605.504 480.581C605.506 488.216 605.554 495.851 605.65 503.486C599.513 503.271 595.122 503.145 588.958 503.452C588.884 525.865 589.829 552.532 588.876 574.436C587.788 575.298 586.746 574.962 584.979 574.993L562.521 575.061C562.32 551.978 561.832 525.955 562.189 503.007C557.924 503.006 553.659 503.038 549.394 503.103C549.675 497.284 551.883 486.475 553.083 480.522L562.316 480.617C562.512 459.581 574.83 448.575 594.779 445.691Z"/><path fill="#32A559" d="M92.2429 410.678C107.34 410.062 124.482 410.466 139.757 410.514C132.798 419.286 125.375 430.492 119.025 439.699C107.917 455.787 96.722 471.813 85.4395 487.779C81.2791 494.39 74.8643 502.906 70.2215 509.342C56.097 496.325 57.9174 485.275 58.0014 467.443C58.035 460.296 57.6279 453.069 58.168 445.892C59.7608 424.723 71.5041 413.067 92.2429 410.678Z"/><path fill="#323846" d="M645.951 454.506L646.367 454.858C646.882 457.517 646.58 476.961 646.588 481.18L662.497 481.081C662.226 488.397 662.203 495.72 662.427 503.037C657.22 502.962 651.789 503.04 646.564 503.045C646.755 511.683 646.776 520.323 646.626 528.962C646.474 544.816 643.725 553.4 662.469 554.586C664.049 561.09 665.521 567.619 666.884 574.172C658.728 575.882 650.321 576.022 642.112 574.584C619.621 569.404 619.649 551.769 619.972 533.116C620.142 523.274 620.011 513.083 620.04 503.211C615.512 503.201 610.983 503.303 606.459 503.518C606.636 498.5 608.901 486.136 609.75 480.603C613.212 480.64 616.673 480.74 620.131 480.902C620.038 475.928 620.067 470.822 620.041 465.836C628.715 462.117 637.185 458.04 645.951 454.506Z"/><path fill="#32A559" d="M83.4831 522.717C95.9322 522.369 110.211 522.629 122.617 523.106C111.076 551.522 99.1495 579.781 86.8422 607.874C85.6464 610.851 83.9709 614.297 82.6203 617.261C59.2627 608.47 57.6139 589.862 57.98 568.12C58.3213 547.849 57.1585 525.466 83.4831 522.717Z"/><path fill="#323846" d="M530.115 480.743L543.9 480.799C543.721 484.65 543.697 488.747 543.727 492.604C543.938 520.04 542.842 547.674 543.426 575.09L533.851 575.063L516.946 575.145C517.506 565.724 517.069 551.964 517.062 542.292L517.043 480.774C521.123 480.925 525.978 480.77 530.115 480.743Z"/><path fill="#323846" d="M833.21 480.183C835.947 479.964 838.68 480.023 841.429 480.026C841.328 484.351 841.305 488.677 841.36 493.002C832.661 493.458 824.524 493.524 817.787 500.103C807.82 509.836 809.936 524.889 809.942 537.639L809.95 574.962L796.752 574.978C796.931 572.202 796.916 568.857 796.964 566.038C796.969 538.031 797.265 508.587 796.877 480.721C800.898 480.744 804.92 480.708 808.94 480.614C808.969 486.473 808.912 492.221 809.403 498.065C814.481 486.421 821.045 482.302 833.21 480.183Z"/><path fill="#323846" d="M848.065 480.765C852.013 480.589 856.539 480.803 860.534 480.898C861.356 512.287 860.218 543.422 860.748 574.701C858.402 575.46 850.432 575.146 847.548 575.104C847.505 562.26 847.982 549.204 847.877 536.162C847.749 520.09 846.574 496.57 848.065 480.765Z"/><path fill="#323846" d="M529.472 440.18C537.999 439.622 545.412 445.974 546.167 454.486C546.923 462.997 540.745 470.555 532.253 471.508C526.581 472.144 521.01 469.659 517.695 465.014C514.38 460.369 513.841 454.292 516.286 449.136C518.731 443.979 523.778 440.552 529.472 440.18Z"/><path fill="#32A559" d="M152.282 578.804C153.258 580.045 153.421 580.7 153.474 582.484C153.773 592.569 154.175 603.467 146.801 611.419C139.323 619.483 131.637 619.543 121.959 619.882L121.214 619.756L121.059 618.8C122.76 615.849 129.653 607.183 132.026 604.205C138.507 596.071 145.383 586.447 152.282 578.804Z"/><path fill="#323846" d="M853.321 441.691C859.276 440.386 865.169 444.126 866.523 450.07C867.878 456.014 864.187 461.938 858.255 463.342C852.252 464.762 846.242 461.018 844.872 455.004C843.501 448.99 847.295 443.012 853.321 441.691Z"/></svg>